<svg width="21" height="16" viewBox="0 0 21 16" fill="none" xmlns="http://www.w3.org/2000/svg">
<path d="M17.1846 1.69073C15.8706 1.08914 14.4834 0.662349 13.0584 0.421265C12.8634 0.769838 12.687 1.12847 12.5299 1.49567C11.012 1.26695 9.46851 1.26695 7.95068 1.49567C7.79347 1.12851 7.61704 0.76988 7.42213 0.421265C5.99628 0.664385 4.60818 1.09219 3.29284 1.69388C0.681546 5.55732 -0.0263336 9.32482 0.327606 13.0388C1.85684 14.1687 3.56849 15.028 5.38816 15.5793C5.79789 15.0283 6.16046 14.4436 6.472 13.8317C5.88027 13.6106 5.30914 13.338 4.76522 13.0168C4.90837 12.913 5.04838 12.806 5.18366 12.7022C6.76632 13.4465 8.49371 13.8324 10.2426 13.8324C11.9916 13.8324 13.719 13.4465 15.3016 12.7022C15.4385 12.8139 15.5785 12.9208 15.7201 13.0168C15.1751 13.3385 14.6029 13.6117 14.0101 13.8332C14.3213 14.4449 14.6839 15.029 15.094 15.5793C16.9152 15.0302 18.6282 14.1713 20.1577 13.0404C20.573 8.73335 19.4482 5.00046 17.1846 1.69073ZM6.92033 10.7547C5.93401 10.7547 5.11916 9.85966 5.11916 8.75851C5.11916 7.65737 5.9057 6.75443 6.91718 6.75443C7.92866 6.75443 8.73722 7.65737 8.71991 8.75851C8.70261 9.85966 7.92551 10.7547 6.92033 10.7547ZM13.565 10.7547C12.5771 10.7547 11.7654 9.85966 11.7654 8.75851C11.7654 7.65737 12.5519 6.75443 13.565 6.75443C14.578 6.75443 15.3803 7.65737 15.363 8.75851C15.3457 9.85966 14.5701 10.7547 13.565 10.7547Z" fill="white"/>
</svg>
