<svg width="24" height="24" viewBox="0 0 24 24" fill="none" xmlns="http://www.w3.org/2000/svg">
<path d="M10.59 13.4095C11 13.7995 11 14.4395 10.59 14.8295C10.2 15.2195 9.56002 15.2195 9.17002 14.8295C8.23339 13.8915 7.70732 12.6201 7.70732 11.2945C7.70732 9.96895 8.23339 8.69756 9.17002 7.75953L12.71 4.21953C13.648 3.28291 14.9194 2.75684 16.245 2.75684C17.5706 2.75684 18.842 3.28291 19.78 4.21953C20.7166 5.15756 21.2427 6.42895 21.2427 7.75453C21.2427 9.0801 20.7166 10.3515 19.78 11.2895L18.29 12.7795C18.3 11.9595 18.17 11.1395 17.89 10.3595L18.36 9.87953C18.6404 9.60221 18.8629 9.27206 19.0148 8.90816C19.1667 8.54426 19.2449 8.15385 19.2449 7.75953C19.2449 7.3652 19.1667 6.97479 19.0148 6.6109C18.8629 6.247 18.6404 5.91684 18.36 5.63953C18.0827 5.35919 17.7525 5.13664 17.3886 4.98475C17.0247 4.83286 16.6343 4.75465 16.24 4.75465C15.8457 4.75465 15.4553 4.83286 15.0914 4.98475C14.7275 5.13664 14.3973 5.35919 14.12 5.63953L10.59 9.16953C10.3097 9.44684 10.0871 9.777 9.93524 10.1409C9.78335 10.5048 9.70514 10.8952 9.70514 11.2895C9.70514 11.6839 9.78335 12.0743 9.93524 12.4382C10.0871 12.8021 10.3097 13.1322 10.59 13.4095ZM13.41 9.16953C13.8 8.77953 14.44 8.77953 14.83 9.16953C15.7666 10.1076 16.2927 11.3789 16.2927 12.7045C16.2927 14.0301 15.7666 15.3015 14.83 16.2395L11.29 19.7795C10.352 20.7161 9.08059 21.2422 7.75502 21.2422C6.42944 21.2422 5.15804 20.7161 4.22002 19.7795C3.28339 18.8415 2.75732 17.5701 2.75732 16.2445C2.75732 14.919 3.28339 13.6476 4.22002 12.7095L5.71002 11.2195C5.70002 12.0395 5.83002 12.8595 6.11002 13.6495L5.64002 14.1195C5.35968 14.3968 5.13712 14.727 4.98524 15.0909C4.83335 15.4548 4.75514 15.8452 4.75514 16.2395C4.75514 16.6339 4.83335 17.0243 4.98524 17.3882C5.13712 17.7521 5.35968 18.0822 5.64002 18.3595C5.91733 18.6399 6.24749 18.8624 6.61139 19.0143C6.97528 19.1662 7.36569 19.2444 7.76002 19.2444C8.15434 19.2444 8.54475 19.1662 8.90865 19.0143C9.27254 18.8624 9.6027 18.6399 9.88002 18.3595L13.41 14.8295C13.6904 14.5522 13.9129 14.2221 14.0648 13.8582C14.2167 13.4943 14.2949 13.1039 14.2949 12.7095C14.2949 12.3152 14.2167 11.9248 14.0648 11.5609C13.9129 11.197 13.6904 10.8668 13.41 10.5895C13.3129 10.4985 13.2355 10.3886 13.1826 10.2664C13.1296 10.1443 13.1023 10.0126 13.1023 9.87953C13.1023 9.74643 13.1296 9.61475 13.1826 9.49262C13.2355 9.3705 13.3129 9.26054 13.41 9.16953Z" fill="white"/>
</svg>
