<svg width="21" height="12" viewBox="0 0 21 12" fill="none" xmlns="http://www.w3.org/2000/svg">
<path d="M11.5241 5.99988C11.5241 9.13652 8.9987 11.6793 5.88362 11.6793C2.76853 11.6793 0.24292 9.13652 0.24292 5.99988C0.24292 2.86324 2.76834 0.320312 5.88362 0.320312C8.9989 0.320312 11.5241 2.86324 11.5241 5.99988Z" fill="white"/>
<path d="M17.7117 5.9997C17.7117 8.95217 16.449 11.3466 14.8914 11.3466C13.3338 11.3466 12.071 8.95217 12.071 5.9997C12.071 3.04723 13.3336 0.652832 14.8912 0.652832C16.4488 0.652832 17.7115 3.04647 17.7115 5.9997" fill="white"/>
<path d="M20.2432 5.99992C20.2432 8.64461 19.7991 10.7899 19.2513 10.7899C18.7034 10.7899 18.2595 8.64518 18.2595 5.99992C18.2595 3.35465 18.7035 1.20996 19.2513 1.20996C19.799 1.20996 20.2432 3.35446 20.2432 5.99992Z" fill="white"/>
</svg>
