<svg width="40" height="40" viewBox="0 0 40 40" fill="none" xmlns="http://www.w3.org/2000/svg">
<circle cx="20" cy="20" r="20" fill="#3D3D3D"/>
<path d="M30.8535 9.33398L21.0865 16.5608L22.9027 12.3018L30.8535 9.33398Z" fill="#E17726"/>
<path d="M9.16964 9.3418L17.099 12.3016L18.8236 16.6166L9.16964 9.3418ZM26.9231 24.7028L31.2398 24.7851L29.7311 29.9102L24.4636 28.4599L26.9231 24.7028ZM13.0772 24.7028L15.5275 28.4599L10.2687 29.9104L8.76935 24.7851L13.0772 24.7028Z" fill="#E27625"/>
<path d="M18.5892 15.5188L18.7657 21.2167L13.4866 20.9765L14.9881 18.7111L15.0073 18.6893L18.5892 15.5188ZM21.3564 15.4551L24.9929 18.6895L25.0119 18.7113L26.5134 20.9765L21.2356 21.2167L21.3564 15.4551ZM15.6819 24.7206L18.5644 26.9665L15.2161 28.5831L15.6819 24.7206ZM24.3187 24.7204L24.7749 28.5831L21.436 26.9663L24.3187 24.7204Z" fill="#E27625"/>
<path d="M21.5098 26.7549L24.898 28.3955L21.7462 29.8935L21.779 28.9034L21.5098 26.7549ZM18.4895 26.7556L18.231 28.8872L18.2522 29.8923L15.0931 28.3955L18.4895 26.7556Z" fill="#D5BFB2"/>
<path d="M17.5111 21.96L18.3966 23.8208L15.3821 22.9377L17.5111 21.96ZM22.4889 21.9602L24.628 22.9377L21.6038 23.8206L22.4889 21.9602Z" fill="#233447"/>
<path d="M15.9124 24.6997L15.4252 28.7044L12.8135 24.7873L15.9124 24.6997ZM24.088 24.6997L27.1872 24.7873L24.5657 28.7046L24.088 24.6997ZM26.5898 20.748L24.3343 23.0466L22.5956 22.252L21.763 24.0021L21.2173 20.9925L26.5898 20.748ZM13.4095 20.748L18.7828 20.9925L18.237 24.0021L17.4043 22.2523L15.6746 23.0466L13.4095 20.748Z" fill="#CC6228"/>
<path d="M13.2575 20.2791L15.809 22.8683L15.8975 25.4245L13.2575 20.2791ZM26.7455 20.2744L24.1008 25.4289L24.2002 22.8683L26.7455 20.2744ZM18.6581 20.4367L18.7608 21.0832L19.0147 22.6935L18.8515 27.6392L18.0802 23.6662L18.0799 23.6252L18.6581 20.4367ZM21.3409 20.4278L21.9206 23.6252L21.9204 23.6662L21.1472 27.6493L21.1164 26.653L20.9959 22.6641L21.3409 20.4278Z" fill="#E27525"/>
<path d="M24.427 22.7637L24.3408 24.9847L21.6488 27.082L21.1048 26.6975L21.7146 23.5556L24.427 22.7637ZM15.5825 22.7639L18.2856 23.5558L18.8954 26.6975L18.3513 27.082L15.6594 24.9844L15.5825 22.7639Z" fill="#F5841F"/>
<path d="M14.5781 27.9043L18.0218 29.536L18.0073 28.8391L18.2955 28.5863H21.7039L22.0024 28.8384L21.9803 29.5347L25.4024 27.9083L23.7373 29.2844L21.7238 30.6673H18.2678L16.2557 29.2786L14.5781 27.9043Z" fill="#C0AC9D"/>
<path d="M21.2631 26.5361L21.7501 26.88L22.0354 29.1565L21.6224 28.8079H18.3793L17.9741 29.1637L18.2503 26.8803L18.7373 26.5361H21.2631Z" fill="#161616"/>
<path d="M30.2087 9.53418L31.3811 13.0512L30.6489 16.6075L31.1702 17.0098L30.4648 17.548L30.9951 17.9574L30.293 18.5969L30.724 18.9091L29.58 20.2451L24.888 18.879L24.8474 18.8572L21.4663 16.005L30.2087 9.53418ZM9.79148 9.53418L18.5341 16.005L15.1528 18.8572L15.1123 18.879L10.4202 20.2451L9.27641 18.9091L9.70701 18.5971L9.00517 17.9574L9.5345 17.5485L8.81839 17.0086L9.35954 16.6061L8.61914 13.0514L9.79148 9.53418Z" fill="#763E1A"/>
<path d="M24.6584 18.5804L29.6299 20.028L31.2451 25.0058H26.9841L24.0479 25.0428L26.1831 20.881L24.6584 18.5804ZM15.3418 18.5804L13.8166 20.881L15.9523 25.0428L13.0176 25.0058H8.76398L10.3703 20.028L15.3418 18.5804ZM23.1463 12.2783L21.7556 16.0341L21.4605 21.1074L21.3477 22.6977L21.3388 26.7601H18.6614L18.6527 22.7053L18.5394 21.1061L18.2441 16.0341L16.8538 12.2783H23.1463Z" fill="#F5841F"/>
</svg>
