<svg width="34" height="35" viewBox="0 0 34 35" fill="none" xmlns="http://www.w3.org/2000/svg">
<path d="M17 24.1667L23.6666 17.5L17 10.8334L14.6666 13.1667L17.3333 15.8334H10.3333V19.1667H17.3333L14.6666 21.8334L17 24.1667ZM17 34.1667C14.6944 34.1667 12.5278 33.7292 10.5 32.8542C8.4722 31.9792 6.70831 30.7917 5.20831 29.2917C3.70831 27.7917 2.52081 26.0278 1.64581 24C0.770813 21.9723 0.333313 19.8056 0.333313 17.5C0.333313 15.1945 0.770813 13.0278 1.64581 11C2.52081 8.97226 3.70831 7.20837 5.20831 5.70837C6.70831 4.20837 8.4722 3.02087 10.5 2.14587C12.5278 1.27087 14.6944 0.833374 17 0.833374C19.3055 0.833374 21.4722 1.27087 23.5 2.14587C25.5278 3.02087 27.2916 4.20837 28.7916 5.70837C30.2916 7.20837 31.4791 8.97226 32.3541 11C33.2291 13.0278 33.6666 15.1945 33.6666 17.5C33.6666 19.8056 33.2291 21.9723 32.3541 24C31.4791 26.0278 30.2916 27.7917 28.7916 29.2917C27.2916 30.7917 25.5278 31.9792 23.5 32.8542C21.4722 33.7292 19.3055 34.1667 17 34.1667Z" fill="#FBCA77"/>
</svg>
