<svg width="21" height="18" viewBox="0 0 21 18" fill="none" xmlns="http://www.w3.org/2000/svg">
<path d="M20.2427 11.505V12.55C20.2427 12.61 20.206 12.6633 20.1527 12.6867C19.826 12.8267 18.7077 13.34 18.2427 13.9867C17.056 15.6383 16.1493 18 14.1227 18H5.66766C2.67101 18 0.242676 15.5633 0.242676 12.5567V12.46C0.242676 12.38 0.307672 12.315 0.387665 12.315H5.101C5.19433 12.315 5.26268 12.4017 5.25436 12.4933C5.22101 12.8 5.27768 13.1133 5.42267 13.3983C5.70266 13.9667 6.28269 14.3217 6.90933 14.3217H9.24268V12.5H6.93601C6.81766 12.5 6.74769 12.3633 6.816 12.2667C6.84102 12.2283 6.86935 12.1883 6.89935 12.1433C7.11766 11.8333 7.42934 11.3517 7.73932 10.8033C7.951 10.4333 8.15601 10.0383 8.32101 9.64167C8.35436 9.57001 8.381 9.49668 8.40767 9.42498C8.45266 9.29834 8.49935 9.17999 8.53265 9.06168C8.566 8.96168 8.59268 8.85667 8.61935 8.75833C8.69769 8.42167 8.731 8.065 8.731 7.69499C8.731 7.55 8.72433 7.39834 8.71099 7.25332C8.70436 7.09499 8.68435 6.93666 8.66434 6.77833C8.651 6.63832 8.62602 6.5 8.59935 6.35501C8.566 6.14333 8.51935 5.93335 8.466 5.72167L8.44769 5.64167C8.40767 5.49668 8.37433 5.35833 8.32768 5.21334C8.19599 4.75833 8.04433 4.315 7.88435 3.9C7.82602 3.735 7.75933 3.57668 7.69268 3.41835C7.59433 3.17999 7.49433 2.96334 7.40266 2.75833C7.35601 2.665 7.316 2.57999 7.27602 2.49333C7.231 2.39499 7.18435 2.29668 7.13767 2.20332C7.10436 2.13165 7.066 2.065 7.03932 1.99834L6.75436 1.47167C6.71434 1.4 6.781 1.315 6.85933 1.33666L8.64268 1.82001H8.64769C8.651 1.82001 8.65266 1.82167 8.65436 1.82167L8.88932 1.88666L9.14769 1.95999L9.24268 1.98666V0.926677C9.24268 0.414997 9.65266 0 10.1593 0C10.4127 0 10.6427 0.103316 10.8077 0.271665C10.9727 0.440014 11.076 0.670007 11.076 0.926677V2.5L11.266 2.55332C11.281 2.55833 11.296 2.565 11.3093 2.57498C11.356 2.60999 11.4227 2.66168 11.5077 2.72498C11.5743 2.77833 11.646 2.84333 11.7327 2.90999C11.9044 3.04834 12.1093 3.22668 12.3343 3.43165C12.3943 3.48335 12.4527 3.53666 12.506 3.59001C12.796 3.85999 13.121 4.17668 13.431 4.52668C13.5177 4.62498 13.6027 4.72498 13.6893 4.82999C13.776 4.93666 13.8677 5.04167 13.9477 5.14668C14.0527 5.28666 14.166 5.43165 14.2643 5.58335C14.311 5.65501 14.3643 5.72833 14.4093 5.8C14.536 5.99167 14.6477 6.19001 14.7544 6.38832C14.7993 6.47999 14.846 6.57999 14.886 6.67833C15.0043 6.94333 15.0977 7.21334 15.1577 7.48335C15.176 7.54167 15.1893 7.60501 15.196 7.66168V7.67498C15.216 7.75501 15.2227 7.84002 15.2293 7.92668C15.256 8.20332 15.2427 8.47999 15.1827 8.75833C15.1577 8.87668 15.1243 8.98832 15.0843 9.10667C15.0443 9.22001 15.0043 9.33832 14.9527 9.45C14.8527 9.68165 14.7343 9.91334 14.5943 10.13C14.5493 10.21 14.496 10.295 14.4427 10.375C14.3843 10.46 14.3243 10.54 14.271 10.6183C14.1977 10.7183 14.1194 10.8233 14.0393 10.9167C13.9677 11.015 13.8943 11.1133 13.8143 11.2C13.7027 11.3317 13.596 11.4567 13.4843 11.5767C13.4177 11.655 13.346 11.735 13.2727 11.8067C13.201 11.8867 13.1277 11.9583 13.061 12.025C12.9493 12.1367 12.856 12.2233 12.7777 12.295L12.5943 12.4633C12.5677 12.4867 12.5327 12.5 12.496 12.5H11.076V14.3217H12.8627C13.2627 14.3217 13.6427 14.18 13.9493 13.92C14.0543 13.8283 14.5127 13.4317 15.0544 12.8333C15.0727 12.8133 15.096 12.7983 15.1227 12.7917L20.0577 11.365C20.1493 11.3383 20.2427 11.4083 20.2427 11.505Z" fill="white"/>
</svg>
