<svg width="34" height="34" viewBox="0 0 34 34" fill="none" xmlns="http://www.w3.org/2000/svg">
<path d="M17 23.6667L19.3333 21.3334L16.6667 18.6667H23.6667V15.3334H16.6667L19.3333 12.6667L17 10.3334L10.3333 17L17 23.6667ZM17 33.6667C14.6944 33.6667 12.5278 33.2292 10.5 32.3542C8.47222 31.4792 6.70833 30.2917 5.20833 28.7917C3.70833 27.2917 2.52083 25.5278 1.64583 23.5C0.770828 21.4723 0.333328 19.3056 0.333328 17C0.333328 14.6945 0.770828 12.5278 1.64583 10.5C2.52083 8.47226 3.70833 6.70837 5.20833 5.20837C6.70833 3.70837 8.47222 2.52087 10.5 1.64587C12.5278 0.770874 14.6944 0.333374 17 0.333374C19.3055 0.333374 21.4722 0.770874 23.5 1.64587C25.5278 2.52087 27.2917 3.70837 28.7917 5.20837C30.2917 6.70837 31.4792 8.47226 32.3542 10.5C33.2292 12.5278 33.6667 14.6945 33.6667 17C33.6667 19.3056 33.2292 21.4723 32.3542 23.5C31.4792 25.5278 30.2917 27.2917 28.7917 28.7917C27.2917 30.2917 25.5278 31.4792 23.5 32.3542C21.4722 33.2292 19.3055 33.6667 17 33.6667Z" fill="#FBCA77"/>
</svg>
