<svg width="190" height="60" viewBox="0 0 190 60" fill="none" xmlns="http://www.w3.org/2000/svg">
<g clip-path="url(#clip0_1105_454)">
<path d="M96.6652 30.306L98.102 19.8226C98.4479 17.4013 98.9535 13.9157 99.5122 11.1219H99.4324C98.2351 13.7029 96.8249 16.7627 95.4945 19.3703L89.8271 30.0133H86.714L85.3836 19.6363C85.0643 16.8692 84.8515 13.7827 84.6652 11.0953H84.612C84.0532 13.623 83.3082 17.4013 82.7495 19.796L80.2218 30.2794H76.5499L82.0843 7.98224H87.4856L88.8426 17.9867C89.0289 20.0887 89.3481 22.51 89.4014 24.745H89.5078C90.3858 22.4833 91.5034 20.0355 92.5144 18.0399L97.9158 7.98224H103.424L100.577 30.2794H96.6652V30.306Z" fill="white"/>
<path d="M127.503 17.5344C127.503 21.3392 126.173 24.6918 123.752 27.1663C121.543 29.3747 118.537 30.7051 114.945 30.7051C108.958 30.7051 105.26 26.6607 105.26 20.8337C105.26 17.0022 106.723 13.5432 109.171 11.0953C111.353 8.94012 114.492 7.60974 117.845 7.60974C124.044 7.60974 127.503 11.6807 127.503 17.5344ZM112.231 13.2239C110.448 15.0599 109.41 17.8004 109.41 20.541C109.41 24.5055 111.326 27.3791 115.503 27.3791C117.419 27.3791 119.202 26.5277 120.585 25.1175C122.288 23.3614 123.353 20.7007 123.353 17.7738C123.353 14.5011 122.102 10.9357 117.393 10.9357C115.344 10.9357 113.588 11.8137 112.231 13.2239Z" fill="white"/>
<path d="M128.781 30.306L132.878 8.00885H137.588L142.004 18.4124C143.069 21.1264 143.654 23.1751 144.239 25.49L144.319 25.4634C144.373 23.388 144.612 21.5787 145.197 18.3858L147.086 8.00885H150.865L146.767 30.306H142.616L138.12 19.4767C136.976 16.4967 136.337 14.6607 135.725 12.3193L135.619 12.3459C135.406 14.4213 134.953 16.9756 134.368 20.2749L132.532 30.306H128.781Z" fill="white"/>
<path d="M170.262 29.1618C168.665 29.7206 165.792 30.5188 162.785 30.5188C159.592 30.5188 156.878 29.694 154.936 27.8315C153.02 26.0221 152.142 23.4678 152.142 20.7539C152.142 16.9224 153.765 13.49 156.532 11.1485C159.113 8.99332 162.625 7.74277 166.643 7.74277C169.783 7.74277 172.071 8.43456 172.896 8.9135L171.699 12.266C170.501 11.6541 168.639 11.1485 166.35 11.1485C163.769 11.1485 161.348 12.0266 159.619 13.5166C157.65 15.1663 156.452 17.694 156.452 20.408C156.452 24.6918 158.98 27.1397 163.61 27.1397C164.993 27.1397 166.138 26.8736 166.883 26.5277L167.867 21.2328H163.557L164.169 18.0133H172.364L170.262 29.1618Z" fill="white"/>
<path d="M173.082 27.9379L179.601 21.2328C180.985 19.8226 182.155 18.7849 183.619 17.5343L183.645 17.4279H175.61L176.222 14.1818H189.1L188.621 16.6563L182.235 23.2284C180.798 24.6652 179.681 25.7295 178.271 26.9268L178.244 27.0332H186.971L186.359 30.2794H172.683L173.082 27.9379Z" fill="white"/>
<path d="M79.6098 38.3947L78.2262 45.898C78.1198 46.3769 78.0666 46.9623 78.0666 47.5743C78.0666 49.0909 78.9712 50.0754 80.5145 50.0754C82.3238 50.0754 83.6275 48.8514 84.1597 45.898L85.5433 38.3947H87.8847L86.5011 45.9246C85.7029 50.235 83.6807 52.0709 80.1952 52.0709C77.561 52.0709 75.6985 50.6607 75.6985 47.5476C75.6985 46.9623 75.7783 46.2971 75.8847 45.7117L77.2417 38.368H79.6098V38.3947Z" fill="white"/>
<path d="M92.142 51.8315L94.6165 38.3947H97.4635L100.124 44.6474C100.763 46.2971 101.109 47.521 101.455 48.9312L101.508 48.9046C101.534 47.6541 101.694 46.5632 102.04 44.6474L103.184 38.3947H105.446L102.971 51.8315H100.47L97.7562 45.3126C97.0644 43.5299 96.6919 42.4124 96.3194 41.0022L96.2395 41.0288C96.1065 42.2794 95.8404 43.8226 95.4945 45.8182L94.377 51.8581H92.142V51.8315Z" fill="white"/>
<path d="M114.492 38.3947L112.018 51.8315H109.676L112.151 38.3947H114.492Z" fill="white"/>
<path d="M121.783 51.8315L119.787 38.3947H122.155L123.166 45.7649C123.353 47.2284 123.486 48.2128 123.592 49.4368H123.645C124.124 48.3193 124.656 47.0953 125.401 45.6319L129.126 38.3947H131.761L124.523 51.8315H121.783Z" fill="white"/>
<path d="M143.468 45.898H138.253L137.534 49.7561H143.388L143.016 51.8048H134.794L137.268 38.368H145.197L144.798 40.4168H139.237L138.599 43.8492H143.84L143.468 45.898Z" fill="white"/>
<path d="M151.53 38.6341C152.408 38.4213 153.738 38.2882 155.016 38.2882C156.346 38.2882 157.623 38.5277 158.501 39.1397C159.299 39.6718 159.885 40.4967 159.885 41.694C159.885 43.6896 158.448 44.9135 156.745 45.4457V45.4989C157.623 45.8448 157.996 46.8027 158.155 47.9734C158.341 49.6497 158.474 51.2461 158.687 51.8049H156.239C156.133 51.5122 155.973 50.235 155.84 48.612C155.707 46.8825 155.042 46.2705 153.765 46.2705H152.461L151.45 51.8049H149.109L151.53 38.6341ZM152.78 44.4878H154.27C156.133 44.4878 157.41 43.4501 157.41 42.0665C157.41 40.6829 156.266 40.204 154.909 40.204C154.244 40.204 153.818 40.2572 153.552 40.337L152.78 44.4878Z" fill="white"/>
<path d="M164.993 49.0111C165.845 49.5698 167.016 49.9956 168.319 49.9956C169.543 49.9956 170.82 49.3836 170.82 48.0532C170.82 47.2018 170.235 46.6164 168.825 45.9512C167.149 45.1796 165.818 44.1153 165.818 42.3592C165.818 39.6984 168.186 38.1286 170.9 38.1286C172.523 38.1286 173.561 38.5543 174.146 38.9002L173.348 40.8958C172.922 40.6297 171.885 40.1774 170.687 40.204C169.144 40.204 168.319 41.082 168.319 41.9069C168.319 42.8647 169.171 43.3969 170.475 44.0355C172.284 44.8869 173.348 45.9246 173.348 47.7073C173.348 50.4213 171.06 52.0709 168 52.0709C166.271 52.0709 164.834 51.5388 164.142 50.98L164.993 49.0111Z" fill="white"/>
<path d="M187.37 45.898H182.155L181.437 49.7561H187.291L186.918 51.8048H178.696L181.171 38.368H189.1L188.701 40.4168H183.14L182.501 43.8492H187.743L187.37 45.898Z" fill="white"/>
<path d="M42.9446 42.6253C42.8648 42.6253 42.785 42.6253 42.7052 42.5987C42.1464 42.5188 41.6941 42.1729 41.4546 41.6408L35.5477 28.2306L31.4768 37.4368C31.2107 38.0222 30.6519 38.3947 30.0134 38.3947C29.3748 38.3947 28.7894 38.0222 28.5499 37.4368L24.479 28.2306L18.5721 41.6408C18.3593 42.1463 17.8803 42.5188 17.3216 42.5987C16.7628 42.6785 16.2307 42.4656 15.8581 42.0399C13.0644 38.714 11.5211 34.4834 11.5211 30.1463C11.5211 20.8869 18.4391 12.9845 27.6187 11.8137C28.816 11.6541 30.04 11.6275 31.2639 11.7073C32.142 11.7605 32.8338 12.5321 32.7805 13.4102C32.7273 14.2882 31.9557 14.98 31.0777 14.9268C30.0932 14.8736 29.0555 14.9002 28.071 15.0333C20.4879 16.0177 14.7938 22.5366 14.7938 30.1729C14.7938 32.8603 15.5122 35.4678 16.816 37.7561L23.0688 23.6275C23.3349 23.0421 23.8936 22.6696 24.5322 22.6696C25.1708 22.6696 25.7562 23.0421 25.9956 23.6275L30.0666 32.8337L34.0577 23.6275C34.3238 23.0421 34.8825 22.6696 35.5211 22.6696C36.1597 22.6696 36.7451 23.0421 36.9845 23.6275L43.2373 37.7561C44.5411 35.4678 45.2595 32.8337 45.2595 30.1729C45.2595 25.4368 43.1043 21.0466 39.3526 18.1197C38.6608 17.561 38.5278 16.5499 39.0599 15.8581C39.6187 15.1663 40.6298 15.0333 41.3216 15.5654C45.8714 19.1042 48.4524 24.4257 48.4524 30.1729C48.4524 34.51 46.9091 38.7406 44.1154 42.0665C43.8759 42.4124 43.4236 42.6253 42.9446 42.6253Z" fill="url(#paint0_linear_1105_454)"/>
<path d="M49.1708 52.5765C48.745 52.5765 48.2927 52.3902 47.9734 52.0443C47.3614 51.3792 47.4147 50.3681 48.0798 49.7561C52.0444 46.1375 54.7849 41.4545 56.0355 36.2661C56.5144 34.2173 56.7805 32.1153 56.7805 29.9867C56.7805 27.8581 56.5144 25.7029 56.0355 23.6541C54.6519 17.9335 51.326 12.7184 46.6962 9.01995C41.9069 5.21507 36.1597 3.1929 30.0133 3.1929C29.1619 3.1929 28.3104 3.24611 27.4856 3.29933C26.6076 3.37915 25.8093 2.74057 25.7295 1.83591C25.6497 0.957864 26.2883 0.159638 27.1929 0.079815C28.1242 -7.57892e-06 29.0821 -0.0532227 30.0399 -0.0532227C36.9047 -0.0532227 43.3703 2.20842 48.7184 6.46562C53.9069 10.6164 57.6319 16.4168 59.2018 22.8559C59.7606 25.1707 60.0532 27.5388 60.0532 29.9601C60.0532 32.3282 59.7872 34.6962 59.2284 36.9845C57.8182 42.8115 54.7583 48.0266 50.3149 52.0976C49.9424 52.4168 49.5699 52.5765 49.1708 52.5765Z" fill="url(#paint1_linear_1105_454)"/>
<path d="M30.0133 60C23.1486 60 16.6829 57.7384 11.3348 53.4812C6.11973 49.3304 2.39468 43.5033 0.851441 37.0909C0.292683 34.7761 0 32.408 0 30.0133C0 27.6452 0.266075 25.2772 0.824834 22.9889C2.63415 15.459 7.21064 9.01996 13.7561 4.78936C14.5011 4.31043 15.5122 4.52329 15.9911 5.2683C16.4701 6.01331 16.2572 7.0244 15.5122 7.50333C9.68514 11.255 5.58758 17.0022 3.96452 23.7339C3.48559 25.7827 3.21951 27.8847 3.21951 30.0133C3.21951 32.1419 3.48559 34.2705 3.96452 36.3459C5.34812 42.0665 8.67406 47.2816 13.3038 50.98C18.0931 54.7849 23.8404 56.8071 29.9867 56.8071C32.3548 56.8071 34.6962 56.4878 36.9845 55.8758C37.8359 55.6364 38.7406 56.1419 38.9534 57.02C39.1929 57.8714 38.6874 58.7761 37.8093 58.9889C35.2816 59.6541 32.6475 60 30.0133 60Z" fill="url(#paint2_linear_1105_454)"/>
<path d="M13.357 10.1907C15.1351 10.1907 16.5765 8.74925 16.5765 6.97116C16.5765 5.19307 15.1351 3.75165 13.357 3.75165C11.5789 3.75165 10.1375 5.19307 10.1375 6.97116C10.1375 8.74925 11.5789 10.1907 13.357 10.1907Z" fill="url(#paint3_linear_1105_454)"/>
<path d="M50.2084 53.0022C51.9865 53.0022 53.4279 51.5608 53.4279 49.7827C53.4279 48.0046 51.9865 46.5632 50.2084 46.5632C48.4303 46.5632 46.9889 48.0046 46.9889 49.7827C46.9889 51.5608 48.4303 53.0022 50.2084 53.0022Z" fill="url(#paint4_linear_1105_454)"/>
</g>
<defs>
<linearGradient id="paint0_linear_1105_454" x1="11.5044" y1="27.1446" x2="48.5033" y2="27.1446" gradientUnits="userSpaceOnUse">
<stop offset="0.1797" stop-color="#7214E4"/>
<stop offset="0.9944" stop-color="#0AFDFD"/>
</linearGradient>
<linearGradient id="paint1_linear_1105_454" x1="34.922" y1="-6.69638" x2="46.3346" y2="21.8352" gradientUnits="userSpaceOnUse">
<stop offset="0.1797" stop-color="#7214E4"/>
<stop offset="0.8113" stop-color="#DA52A7"/>
<stop offset="0.9944" stop-color="#F96495"/>
</linearGradient>
<linearGradient id="paint2_linear_1105_454" x1="3.3111" y1="5.94799" x2="14.7237" y2="34.4796" gradientUnits="userSpaceOnUse">
<stop offset="0.1797" stop-color="#7214E4"/>
<stop offset="0.8113" stop-color="#DA52A7"/>
<stop offset="0.9944" stop-color="#F96495"/>
</linearGradient>
<linearGradient id="paint3_linear_1105_454" x1="11.6184" y1="2.62503" x2="23.031" y2="31.1566" gradientUnits="userSpaceOnUse">
<stop offset="0.1797" stop-color="#7214E4"/>
<stop offset="0.8113" stop-color="#DA52A7"/>
<stop offset="0.9944" stop-color="#F96495"/>
</linearGradient>
<linearGradient id="paint4_linear_1105_454" x1="28.623" y1="-4.17683" x2="40.0357" y2="24.3548" gradientUnits="userSpaceOnUse">
<stop offset="0.1797" stop-color="#7214E4"/>
<stop offset="0.8113" stop-color="#DA52A7"/>
<stop offset="0.9944" stop-color="#F96495"/>
</linearGradient>
<clipPath id="clip0_1105_454">
<rect width="189.073" height="60" fill="white"/>
</clipPath>
</defs>
</svg>
