<svg width="21" height="18" viewBox="0 0 21 18" fill="none" xmlns="http://www.w3.org/2000/svg">
<path d="M20.2427 2.79746C19.5068 3.12412 18.716 3.34412 17.886 3.44329C18.7335 2.93579 19.3843 2.13162 19.6902 1.17329C18.8977 1.64329 18.0193 1.98496 17.0843 2.16912C16.3368 1.37162 15.2693 0.873291 14.0893 0.873291C11.4402 0.873291 9.49351 3.34496 10.0918 5.91079C6.68268 5.73996 3.65934 4.10662 1.63518 1.62412C0.560176 3.46829 1.07768 5.88079 2.90434 7.10246C2.23268 7.08079 1.59934 6.89662 1.04684 6.58912C1.00184 8.48996 2.36434 10.2683 4.33768 10.6641C3.76018 10.8208 3.12768 10.8575 2.48434 10.7341C3.00601 12.3641 4.52101 13.55 6.31768 13.5833C4.59268 14.9358 2.41934 15.54 0.242676 15.2833C2.05851 16.4475 4.21601 17.1266 6.53268 17.1266C14.151 17.1266 18.4552 10.6925 18.1952 4.92162C18.9968 4.34246 19.6927 3.61996 20.2427 2.79746Z" fill="white"/>
</svg>
