<svg width="21" height="16" viewBox="0 0 21 16" fill="none" xmlns="http://www.w3.org/2000/svg">
<path d="M8.19722 10.9635V5.03644L13.4245 8.0001L8.19722 10.9635ZM19.8247 3.17148C19.5947 2.30831 18.917 1.62861 18.0565 1.39793C16.4969 0.978687 10.2427 0.978687 10.2427 0.978687C10.2427 0.978687 3.9885 0.978687 2.4288 1.39793C1.56831 1.62861 0.89058 2.30831 0.6606 3.17148C0.242676 4.7359 0.242676 7.99996 0.242676 7.99996C0.242676 7.99996 0.242676 11.264 0.6606 12.8285C0.89058 13.6916 1.56831 14.3713 2.4288 14.6021C3.9885 15.0212 10.2427 15.0212 10.2427 15.0212C10.2427 15.0212 16.4969 15.0212 18.0565 14.6021C18.917 14.3713 19.5947 13.6916 19.8247 12.8285C20.2427 11.264 20.2427 7.99996 20.2427 7.99996C20.2427 7.99996 20.2427 4.7359 19.8247 3.17148Z" fill="white"/>
</svg>
